<?xml version="1.0" encoding="UTF-8"?>
<svg version="1.1" xmlns="http://www.w3.org/2000/svg" width="896" height="856">
<path d="M0 0 C295.68 0 591.36 0 896 0 C896 282.48 896 564.96 896 856 C600.32 856 304.64 856 0 856 C0 573.52 0 291.04 0 0 Z " fill="#0E0E0E" transform="translate(0,0)"/>
<path d="M0 0 C3.27510766 0.68090797 6.5432707 1.27439197 9.84277344 1.81958008 C15.11344353 2.75378747 19.99909002 4.39254487 25.01074219 6.24536133 C26.67978261 6.8488635 28.34905219 7.45173235 30.01855469 8.05395508 C30.8301001 8.34979492 31.64164551 8.64563477 32.4777832 8.95043945 C34.80108129 9.77771542 37.13650494 10.54664837 39.48339844 11.30395508 C63.66001513 19.3089484 81.96299718 34.74854169 93.70996094 57.31176758 C96.08774862 62.28036509 98.28668933 67.1438683 99.39355469 72.55395508 C99.79592976 74.39657743 100.29265345 76.21837304 100.81542969 78.03051758 C107.3879066 100.84228964 108.8614461 126.71154919 102.88574219 149.80786133 C102.59570312 150.95327393 102.59570312 150.95327393 102.29980469 152.12182617 C96.98659752 172.41122609 86.4177886 190.65269049 68.88574219 202.80786133 C68.22960937 203.26290039 67.57347656 203.71793945 66.89746094 204.18676758 C61.17329973 207.58808076 55.37698917 207.19733615 48.88574219 206.80786133 C49.61148437 206.08469727 50.33722656 205.3615332 51.08496094 204.61645508 C66.00364943 189.65615239 76.48439113 173.54114814 77.44824219 151.80786133 C77.08978545 145.58815257 75.51312179 138.91997139 71.42480469 134.07739258 C65.35551657 128.82453155 60.32544156 128.36532738 52.49902344 128.49536133 C44.24150864 129.20952477 37.42957451 132.65704006 31.88574219 138.80786133 C27.42106644 144.24770097 27.42106644 144.24770097 25.88574219 150.80786133 C26.66949219 149.79723633 27.45324219 148.78661133 28.26074219 147.74536133 C34.38174108 140.62825648 42.73524362 134.78570729 52.17089844 133.49536133 C56.13594111 133.28353935 58.58865989 133.67582475 62.26074219 135.30786133 C66.96536097 139.78845064 68.03496294 144.54519015 68.26074219 150.93286133 C67.73614806 166.10412354 62.83043632 179.09037346 51.69433594 189.62817383 C46.00585996 194.04287424 37.21197922 200.80786133 29.88574219 200.80786133 C29.83675781 201.40469727 29.78777344 202.0015332 29.73730469 202.61645508 C29.25448421 208.21883752 28.64707296 213.79072033 27.94824219 219.37036133 C26.49716355 231.141754 25.73413026 242.98089516 24.88574219 254.80786133 C26.14515625 254.94192383 27.40457031 255.07598633 28.70214844 255.21411133 C32.78615061 255.64884646 35.91644656 256.8385657 38.88574219 259.80786133 C38.9577973 261.49395099 38.96960286 263.18286792 38.94824219 264.87036133 C38.93470703 266.24901367 38.93470703 266.24901367 38.92089844 267.65551758 C38.90349609 268.72092773 38.90349609 268.72092773 38.88574219 269.80786133 C40.78259766 269.32639648 40.78259766 269.32639648 42.71777344 268.83520508 C56.58688734 265.77516412 71.096194 266.5694588 83.88574219 272.80786133 C84.85640625 273.26547852 85.82707031 273.7230957 86.82714844 274.19458008 C102.98735003 282.39829855 115.54680398 295.89914005 125.57446289 310.71313477 C129.06973999 315.82388579 132.89480875 320.04689573 137.39355469 324.31567383 C149.65635891 336.57847805 159.01466041 352.10413119 167.13574219 367.30786133 C167.51158447 368.00548584 167.88742676 368.70311035 168.2746582 369.421875 C175.33428297 383.00113591 180.29614614 397.47595128 185.01074219 411.99536133 C191.58959055 433.14813586 191.58959055 433.14813586 200.84667969 453.18676758 C202.3717409 457.03382048 201.46122694 459.32547426 200.01074219 463.06176758 C184.03801382 495.83913724 150.55721266 515.9028608 120.01074219 533.12036133 C118.92792969 533.73186035 117.84511719 534.34335937 116.72949219 534.97338867 C111.53081078 537.87990953 106.40737855 540.57741085 100.88574219 542.80786133 C99.66992401 543.41817322 98.45999406 544.04060796 97.26074219 544.68286133 C92.89586944 546.89019241 88.38325702 548.58931116 83.80761719 550.30786133 C80.77924519 551.45269467 77.77619279 552.65271994 74.77636719 553.87036133 C73.8865918 554.23097656 72.99681641 554.5915918 72.08007812 554.96313477 C70.31116252 555.68185691 68.54353607 556.40376178 66.77734375 557.12915039 C65.54709473 557.62753418 65.54709473 557.62753418 64.29199219 558.13598633 C63.56302734 558.43408203 62.8340625 558.73217773 62.08300781 559.03930664 C59.70532303 559.87096794 57.36319975 560.36740026 54.88574219 560.80786133 C54.76199219 561.71536133 54.63824219 562.62286133 54.51074219 563.55786133 C53.88574219 566.80786133 53.88574219 566.80786133 52.76074219 568.80786133 C51.43761322 571.83215612 52.03318056 573.64120387 52.88574219 576.80786133 C53.78497411 578.7853192 54.77215365 580.69823994 55.78417969 582.62036133 C57.34044011 585.71080755 58.567105 588.905605 59.83105469 592.12426758 C62.77522216 599.61553814 65.93333324 606.97615347 69.38574219 614.24536133 C72.13915402 620.04279819 74.51910938 625.9099876 76.75683594 631.92895508 C77.75863381 634.48371298 78.86816834 636.87720896 80.13574219 639.30786133 C81.62270565 642.28178826 82.47744917 644.5415172 82.88574219 647.80786133 C87.24239421 646.38704328 89.88461193 644.2517659 93.19824219 641.12036133 C94.52275391 639.87706055 94.52275391 639.87706055 95.87402344 638.60864258 C96.34654541 638.16375488 96.81906738 637.71886719 97.3059082 637.26049805 C99.08759876 635.62225684 100.91313759 634.04197289 102.74511719 632.46020508 C106.93047068 628.81355555 110.90116258 624.98472396 114.82324219 621.05786133 C115.52126953 620.35902832 116.21929688 619.66019531 116.93847656 618.94018555 C122.31934909 613.49549337 127.18961009 607.85663187 131.88574219 601.80786133 C132.5109375 601.06149414 133.13613281 600.31512695 133.78027344 599.54614258 C142.57807454 588.99236489 150.08584838 577.30084648 156.76074219 565.30786133 C157.12949463 564.64713623 157.49824707 563.98641113 157.87817383 563.30566406 C159.43081365 560.50326077 160.94218744 557.69599977 162.38574219 554.83520508 C165.6035303 548.77442805 169.12451118 545.92961848 175.03808594 542.49926758 C179.69959574 539.73049701 183.73835191 536.28286265 187.88574219 532.80786133 C188.41570801 532.37344727 188.94567383 531.9390332 189.49169922 531.49145508 C203.67615732 519.86206208 215.05831481 507.32099197 224.88574219 491.80786133 C225.2727832 491.19765137 225.65982422 490.58744141 226.05859375 489.95874023 C232.68318651 479.34953897 239.76453147 467.5934759 236.88574219 454.80786133 C236.70366211 453.85814453 236.52158203 452.90842773 236.33398438 451.92993164 C234.37299656 442.01327211 231.38872557 432.61337506 228.13574219 423.05786133 C227.5952871 421.45470173 227.05492309 419.85151143 226.51464844 418.24829102 C220.04666584 399.06376847 220.04666584 399.06376847 211.77832031 380.61157227 C210.75927043 378.55228875 209.9245959 376.46513476 209.13574219 374.30786133 C206.23108095 366.89870589 202.52634495 359.8752109 198.88574219 352.80786133 C198.56057617 352.17154785 198.23541016 351.53523438 197.90039062 350.87963867 C190.83668736 337.10074649 182.60928043 324.18730782 173.79418945 311.46972656 C164.10237727 297.48392 164.10237727 297.48392 160.57324219 290.12036133 C152.2266431 272.90891026 140.32353081 257.24157887 127.88574219 242.80786133 C127.24636719 242.05633789 126.60699219 241.30481445 125.94824219 240.53051758 C122.12175078 236.08051306 118.07929208 231.91111948 113.88574219 227.80786133 C111.21907552 225.14119466 108.55240885 222.47452799 105.88574219 219.80786133 C107.47043256 216.11025046 109.79592768 213.4963369 112.44824219 210.49536133 C125.97468846 194.60246414 133.10844095 175.92593733 137.88574219 155.80786133 C142.3162389 155.80786133 142.62948741 156.0376408 145.66308594 158.87426758 C146.36030762 159.51638184 147.0575293 160.15849609 147.77587891 160.82006836 C148.47213379 161.47604004 149.16838867 162.13201172 149.88574219 162.80786133 C151.13657084 163.94249804 152.38785954 165.07662784 153.63964844 166.21020508 C176.21929048 187.06538057 195.1435414 210.05893218 211.88574219 235.80786133 C212.59730469 236.8984082 213.30886719 237.98895508 214.04199219 239.11254883 C230.41860756 264.95270014 243.24696165 293.48325084 251.88574219 322.80786133 C252.30082037 324.13778523 252.71757275 325.46718742 253.13574219 326.79614258 C255.81410918 335.4246602 257.76530831 343.94280837 259.20605469 352.85864258 C259.75607097 356.2105534 260.5250328 359.45780639 261.38574219 362.74536133 C265.87433785 381.91080313 266.39968048 401.7907874 266.33178711 421.38378906 C266.32326956 425.10839133 266.35221553 428.83145523 266.38378906 432.5559082 C266.44457824 453.30102386 264.51055318 473.6772346 259.53929138 493.85127258 C258.87978166 496.83482615 258.47489518 499.77273639 258.13574219 502.80786133 C256.86659691 511.67036733 253.64186486 519.97208647 250.71240234 528.39331055 C249.63720895 531.53378979 248.6580424 534.69269609 247.69824219 537.87036133 C247.39144531 538.87454102 247.08464844 539.8787207 246.76855469 540.91333008 C246.17710572 542.85254992 245.5885912 544.79266703 245.00292969 546.73364258 C242.35963464 555.11888528 238.74614767 562.93350032 234.88574219 570.80786133 C234.57620605 571.44208008 234.26666992 572.07629883 233.94775391 572.72973633 C231.99240042 576.72364984 229.99892996 580.69682188 227.97900391 584.65844727 C227.23143074 586.12821817 226.48847608 587.60034491 225.74951172 589.07446289 C216.27548118 607.9436066 204.62095446 625.2550783 191.42871094 641.73754883 C189.83059134 643.79827246 189.83059134 643.79827246 188.52636719 646.15942383 C186.46863533 649.48119096 184.00601809 652.36926285 181.44824219 655.30786133 C180.92762207 655.90937012 180.40700195 656.51087891 179.87060547 657.13061523 C176.04797185 661.5237228 172.17907164 665.87492013 168.26074219 670.18286133 C167.7522876 670.74811523 167.24383301 671.31336914 166.7199707 671.89575195 C165.48367755 673.23946659 164.1895416 674.52954334 162.88574219 675.80786133 C162.22574219 675.80786133 161.56574219 675.80786133 160.88574219 675.80786133 C160.62664063 676.4034082 160.36753906 676.99895508 160.10058594 677.61254883 C158.78783705 679.98478315 157.52792292 681.21204442 155.44824219 682.93286133 C152.0359147 685.81355809 148.7280776 688.77677748 145.44824219 691.80786133 C140.76134016 696.07159573 135.97107291 700.03238852 130.88574219 703.80786133 C130.32306641 704.22712891 129.76039063 704.64639648 129.18066406 705.07836914 C119.8026111 712.05567966 110.48677625 718.93969959 100.19824219 724.53051758 C97.74792835 725.88398485 95.34689793 727.30241998 92.94824219 728.74536133 C92.10519531 729.25196289 91.26214844 729.75856445 90.39355469 730.28051758 C88.7962855 731.25330925 87.20674434 732.23898972 85.62792969 733.24145508 C77.74383391 738.17235566 69.34249581 741.97793236 60.88574219 745.80786133 C60.16298096 746.13568604 59.44021973 746.46351074 58.69555664 746.80126953 C41.91123209 754.34237236 24.64372293 761.26315888 6.79199219 765.78051758 C4.2089129 766.43979454 1.71370489 767.18089421 -0.83300781 767.99145508 C-22.83649352 774.95949902 -47.39649496 777.5732071 -70.41357422 777.77270508 C-73.22668285 777.79942942 -76.03753773 777.84202323 -78.85009766 777.89770508 C-108.05694463 778.45825982 -135.64325068 776.97325536 -164.11425781 769.80786133 C-165.56975585 763.18653109 -166.5126775 756.68626772 -167.05175781 749.93286133 C-168.15858477 737.28713655 -170.01287318 724.79121085 -172.30175781 712.30786133 C-173.311508 706.46633131 -173.30294085 700.71992991 -173.11425781 694.80786133 C-165.0832038 696.40226176 -157.06861617 698.05404434 -149.12597656 700.04614258 C-148.24619141 700.26431641 -147.36640625 700.48249023 -146.45996094 700.70727539 C-144.75981397 701.13137524 -143.06164788 701.56354961 -141.36621094 702.00610352 C-124.97458209 706.07508432 -108.3813319 706.20845754 -91.58959961 706.23339844 C-87.84648704 706.24522006 -84.10506801 706.29448932 -80.36230469 706.3449707 C-56.81733018 706.50184242 -34.62656901 702.32835841 -11.95068359 696.27856445 C-9.68771275 695.69853151 -7.4119583 695.22811669 -5.11425781 694.80786133 C-8.76187023 680.13574869 -15.58081407 665.839843 -23.70019531 653.11645508 C-25.43893485 650.27779468 -26.91195919 647.33424813 -28.42675781 644.37036133 C-31.94090241 637.80445958 -36.13723306 632.32693829 -41.11425781 626.80786133 C-41.87480469 625.94161133 -42.63535156 625.07536133 -43.41894531 624.18286133 C-54.80244858 611.94092995 -70.2826421 605.51525022 -86.17675781 601.18286133 C-86.87696045 600.98861572 -87.57716309 600.79437012 -88.29858398 600.59423828 C-104.32947424 596.44980389 -120.09533843 595.36452819 -136.60375977 595.52661133 C-139.80855033 595.5579277 -143.01284433 595.56762142 -146.21777344 595.57348633 C-162.53754672 595.63330666 -178.45499061 596.34107054 -194.61425781 598.80786133 C-196.99959289 599.1625771 -199.38500751 599.51675841 -201.77050781 599.87036133 C-202.86492187 600.03407227 -203.95933594 600.1977832 -205.08691406 600.36645508 C-208.75739835 600.90163537 -212.43099232 601.37024563 -216.11425781 601.80786133 C-215.69314996 613.63140577 -215.05969718 625.38263219 -213.83862305 637.15209961 C-213.36232055 641.84204806 -213.01855612 646.49285371 -212.87280273 651.20410156 C-212.53401418 661.53424184 -211.19969336 671.70312827 -209.80175781 681.93286133 C-209.70083832 682.68955109 -209.59991882 683.44624084 -209.49594116 684.2258606 C-207.25040882 700.92625775 -203.47750977 716.62372558 -197.76269531 732.49145508 C-195.49449644 738.99760448 -193.41965264 745.23832447 -196.48925781 751.87036133 C-199.96091922 758.27862522 -207.45678923 761.53368473 -214.11425781 763.80786133 C-236.91194598 769.58920798 -260.70724862 768.29973705 -283.9960022 767.84854126 C-286.27392609 767.80479499 -288.55187638 767.76265589 -290.82983398 767.72070312 C-302.47094654 767.50483839 -314.11125142 767.26010003 -325.75133514 766.99463654 C-328.4822398 766.93301967 -331.21318828 766.87377663 -333.94415283 766.81488037 C-338.29356513 766.71999633 -342.64262626 766.6149393 -346.9916153 766.50235748 C-348.61212111 766.46170039 -350.23270547 766.42404666 -351.85335541 766.38961029 C-354.09997668 766.34114437 -356.34602265 766.28122839 -358.59228516 766.21850586 C-360.48930679 766.17187302 -360.48930679 766.17187302 -362.4246521 766.1242981 C-366.54717163 765.77073274 -370.12785083 764.90412898 -374.11425781 763.80786133 C-375.08363281 763.56036133 -376.05300781 763.31286133 -377.05175781 763.05786133 C-379.11425781 761.80786133 -379.11425781 761.80786133 -380.23925781 759.05786133 C-380.09976107 755.43094613 -379.23142293 753.85906026 -376.75048828 751.23925781 C-371.21521655 746.39692744 -364.80116833 743.68384527 -357.92675781 741.30786133 C-356.24031672 740.70567735 -354.55411916 740.10281089 -352.86816406 739.49926758 C-352.0536377 739.21067871 -351.23911133 738.92208984 -350.39990234 738.62475586 C-340.19758478 734.97842446 -330.15748769 730.86834997 -320.11425781 726.80786133 C-319.05980469 726.38504883 -318.00535156 725.96223633 -316.91894531 725.52661133 C-310.84110155 723.0510405 -304.9975271 720.3083043 -299.19628906 717.23754883 C-295.26950958 715.41600093 -291.23878091 714.10565647 -287.11425781 712.80786133 C-289.1403472 702.37180314 -291.26966203 691.97579306 -293.67675781 681.62036133 C-295.34229321 674.43813154 -296.80864461 667.26592444 -298.02075195 659.99414062 C-298.87783807 654.92811718 -299.95679482 649.93806278 -301.11425781 644.93286133 C-302.68888621 638.06854653 -303.92511223 631.20447306 -304.97192383 624.24121094 C-305.74865843 619.07943282 -306.61477941 613.9428044 -307.54443359 608.80639648 C-310.02858565 595.04194665 -311.87784199 581.21541396 -313.64013672 567.34277344 C-313.95315998 565.00896099 -314.29348592 562.67862847 -314.66259766 560.35302734 C-315.95462767 552.17691796 -316.48687219 544.15322612 -316.48486328 535.89160156 C-316.48930946 533.84660733 -316.52602297 531.8036591 -316.56347656 529.7590332 C-316.5884183 521.29131364 -316.30280629 516.14888373 -310.29003906 509.91723633 C-309.36771484 509.2443457 -309.36771484 509.2443457 -308.42675781 508.55786133 C-307.82476562 508.09895508 -307.22277344 507.64004883 -306.60253906 507.16723633 C-298.09309359 502.51843409 -289.99729965 502.34694125 -280.42675781 502.43286133 C-279.15380859 502.42125977 -277.88085938 502.4096582 -276.56933594 502.39770508 C-268.9231679 502.42102842 -261.98595264 503.26159093 -254.55517578 505.03710938 C-251.14460494 505.80106369 -247.78805765 506.29279385 -244.32128906 506.72583008 C-236.72960678 507.75379319 -229.43353696 509.57442796 -222.03833008 511.52929688 C-219.81630229 512.11651762 -217.59163501 512.69264558 -215.36621094 513.2668457 C-209.37146852 514.82506109 -203.39103595 516.39976378 -197.46826172 518.21557617 C-196.70987503 518.44681686 -195.95148834 518.67805756 -195.17012024 518.91630554 C-193.7353282 519.35795343 -192.30309505 519.80804449 -190.87419128 520.26838684 C-186.50804051 521.61505673 -182.67718407 522.21425418 -178.11425781 521.80786133 C-175.80547111 519.03731729 -174.76720895 516.33379749 -174.11425781 512.80786133 C-174.83355469 512.70473633 -175.55285156 512.60161133 -176.29394531 512.49536133 C-185.68233815 510.20677803 -193.96321048 501.96542018 -201.11425781 495.80786133 C-201.9946875 495.05118164 -202.87511719 494.29450195 -203.78222656 493.51489258 C-209.00730686 488.92219719 -213.66349733 484.14330167 -218.11425781 478.80786133 C-218.97019531 477.81657227 -219.82613281 476.8252832 -220.70800781 475.80395508 C-230.04276855 464.9766709 -238.25626202 453.48252006 -246.02490234 441.48950195 C-246.96172875 440.04332081 -247.90995004 438.60453259 -248.86035156 437.16723633 C-251.96504208 432.13640636 -253.44765619 427.71291131 -252.11425781 421.80786133 C-251.05659183 419.68420129 -249.83564031 417.82991312 -248.46582031 415.89379883 C-247.01253706 413.65087033 -246.14953612 411.50456328 -245.23925781 408.99536133 C-239.87188514 394.97578392 -229.09888854 383.7134046 -219.11425781 372.80786133 C-218.23511719 371.82430664 -217.35597656 370.84075195 -216.45019531 369.82739258 C-210.68560485 363.39718516 -204.71240014 357.39368593 -198.11425781 351.80786133 C-197.23012207 351.05520996 -197.23012207 351.05520996 -196.328125 350.28735352 C-189.4920819 344.49718717 -182.80443061 339.0325846 -174.98925781 334.62036133 C-169.73627019 331.54213639 -167.31751658 328.75261715 -164.55566406 323.39379883 C-157.78843357 311.25313058 -145.99546791 304.00237302 -133.11425781 299.80786133 C-127.84200445 298.4131926 -122.51366691 297.27857534 -117.18066406 296.14379883 C-113.01118064 295.250775 -108.88894147 294.24938991 -104.76660156 293.15942383 C-92.28321237 289.89077944 -81.02682465 287.91733948 -68.11425781 288.80786133 C-68.27506836 288.23946533 -68.43587891 287.67106934 -68.6015625 287.08544922 C-69.48194426 283.17445804 -69.34028862 279.23922838 -69.36425781 275.24536133 C-69.39519531 273.95082031 -69.39519531 273.95082031 -69.42675781 272.63012695 C-69.43191406 271.80061523 -69.43707031 270.97110352 -69.44238281 270.11645508 C-69.45172852 269.36162842 -69.46107422 268.60680176 -69.47070312 267.82910156 C-69.11425781 265.80786133 -69.11425781 265.80786133 -67.96875 264.03857422 C-66.11425781 262.80786133 -66.11425781 262.80786133 -60.11425781 262.80786133 C-60.11425781 255.87786133 -60.11425781 248.94786133 -60.11425781 241.80786133 C-63.57925781 242.79786133 -63.57925781 242.79786133 -67.11425781 243.80786133 C-87.27305825 245.70978573 -108.82917285 244.08313058 -126.83544922 234.04125977 C-129.24014258 232.68308992 -129.24014258 232.68308992 -132.45166016 231.47290039 C-136.4687303 229.61467576 -139.72982076 227.62725254 -142.11425781 223.80786133 C-144.42074541 215.48588261 -143.45935224 206.46063095 -143.11425781 197.93286133 C-143.07471001 195.58138769 -143.04080775 193.22981198 -143.01269531 190.87817383 C-142.71791573 174.26721736 -140.96591326 158.27622594 -136.86035156 142.15551758 C-136.1931091 139.16166003 -135.71560327 136.21009228 -135.25878906 133.17895508 C-134.21935453 126.82511103 -132.4468844 120.89001615 -130.36425781 114.80786133 C-130.01081299 113.75985352 -129.65736816 112.7118457 -129.29321289 111.63208008 C-127.09917044 105.26742497 -124.72923527 99.25412475 -121.43847656 93.37036133 C-120.33526004 91.23552345 -119.54286408 89.26320933 -118.75488281 87.00708008 C-117.11180305 82.50327638 -114.76442943 78.63836555 -112.17675781 74.62036133 C-111.74685547 73.93522461 -111.31695312 73.25008789 -110.87402344 72.54418945 C-108.98416386 69.56457776 -107.07574945 66.76000951 -104.86035156 64.00708008 C-102.9345365 61.83909323 -102.9345365 61.83909323 -102.11425781 58.80786133 C-102.67113281 58.58098633 -103.22800781 58.35411133 -103.80175781 58.12036133 C-109.2181987 55.04616515 -115.13360569 48.7498177 -117.11425781 42.80786133 C-117.82989014 37.20056498 -118.04056486 32.3062188 -114.67675781 27.55786133 C-110.47499566 22.70582646 -105.2609203 17.85674882 -99.11425781 15.80786133 C-99.10007812 16.46270508 -99.08589844 17.11754883 -99.07128906 17.79223633 C-98.55606549 27.65110901 -96.15513271 36.4360907 -88.80175781 43.37036133 C-84.06437201 47.17450585 -79.33483823 49.80786133 -73.11425781 49.80786133 C-73.62214844 49.38375977 -74.13003906 48.9596582 -74.65332031 48.52270508 C-82.92855281 41.47171109 -90.92266383 33.8030726 -92.59863281 22.55786133 C-92.90064289 15.30961958 -91.99905466 10.26580767 -87.11425781 4.80786133 C-66.66835042 -16.6354074 -25.19805689 -5.38938843 0 0 Z " fill="#FDFDFD" transform="translate(549.1142578125,31.192138671875)"/>
<path d="M0 0 C-1.91441882 6.83280733 -4.26275353 13.33339063 -7 19.875 C-9.59429493 26.22096355 -11.89990513 32.39988385 -13.359375 39.1171875 C-14.09738944 42.43825247 -15.05423643 45.66967512 -16 48.9375 C-17.28697268 53.50341411 -18.12537086 57.71952583 -18.5 62.44921875 C-19.69101889 76.77716372 -19.69101889 76.77716372 -23.43359375 80.2734375 C-26.60953332 81.57024507 -29.64206145 82.31405531 -33 83 C-34.87254431 83.70285977 -36.72760362 84.45401678 -38.5625 85.25 C-39.54605469 85.66121094 -40.52960938 86.07242188 -41.54296875 86.49609375 C-71.82113741 99.66795243 -99.02633308 116.94911954 -123.2265625 139.44921875 C-125.46442174 141.50741887 -127.73414793 143.4845353 -130.0625 145.4375 C-135.50476052 150.16990045 -140.24360216 155.59507942 -145 161 C-145.82628906 161.9384375 -146.65257812 162.876875 -147.50390625 163.84375 C-170.14017075 190.29511526 -187.25341506 221.32439645 -199 254 C-199.77807942 256.03786096 -200.55811166 258.07481598 -201.34667969 260.10864258 C-202.2901852 262.84008398 -202.83416036 265.61769631 -203.41015625 268.4453125 C-204.08170694 271.35388303 -204.98024775 274.15211152 -205.875 277 C-208.99986513 287.78544869 -210.42002681 298.90369867 -212 310 C-212.18224121 311.19157715 -212.18224121 311.19157715 -212.36816406 312.40722656 C-217.41695619 345.78953872 -215.21223247 383.28760205 -205.9453125 415.6875 C-205.0829865 418.70920434 -204.45784307 421.65417737 -203.9375 424.75 C-203.44925096 427.63914308 -202.92872374 430.21382879 -202 433 C-201.87196061 435.06015565 -201.79798759 437.12384009 -201.75390625 439.1875 C-201.72248535 440.43442627 -201.69106445 441.68135254 -201.65869141 442.96606445 C-201.64332336 443.62466461 -201.62795532 444.28326477 -201.61212158 444.96182251 C-201.20234963 461.79296583 -199.86503587 478.1831828 -196.7734375 494.7421875 C-196.11761551 498.27714899 -195.55763428 501.81939419 -195.02514648 505.37475586 C-193.51040846 515.46972358 -191.57298989 525.47082199 -189.59606934 535.48327637 C-187.88096062 544.18910776 -186.33326673 552.88568301 -185.11987305 561.67602539 C-183.97475811 569.72056348 -182.31750872 577.65784512 -180.62475586 585.60302734 C-179.60741568 590.47080692 -178.68172509 594.99362167 -179 600 C-179.99 600 -180.98 600 -182 600 C-183.04497591 598.36115799 -184.03825679 596.68903161 -185 595 C-186.33155348 593.58288485 -187.710026 592.20882854 -189.125 590.875 C-193.38480111 586.71875969 -197.11933929 582.30581383 -200.83203125 577.66015625 C-202.73154887 575.32939679 -204.6995496 573.1341041 -206.75 570.9375 C-225.04651501 550.49913104 -239.08123787 525.35236852 -251.0859375 500.84277344 C-251.91127895 499.17886391 -252.76641307 497.52981339 -253.625 495.8828125 C-264.51059474 474.9620601 -271.88768149 450.96943105 -277 428 C-277.34836596 426.55553138 -277.69871404 425.11153971 -278.05078125 423.66796875 C-280.12212834 415.00086873 -281.58895824 406.45151741 -282.40478516 397.57275391 C-282.42787073 393.98321562 -282.42787073 393.98321562 -284 391 C-288.3827626 364.13442152 -286.98812136 335.25737271 -284.25 308.3125 C-284.17158875 307.51986755 -284.09317749 306.72723511 -284.01239014 305.9105835 C-282.71871312 293.15966928 -280.52098355 280.63527086 -276.92553711 268.31958008 C-276.10503193 265.37671305 -275.59857443 262.61587919 -275.20703125 259.59375 C-274.04844702 252.34667588 -271.79262913 245.57850143 -269.42407227 238.65478516 C-268.68964743 236.50628214 -267.96974472 234.35332873 -267.25195312 232.19921875 C-263.75255081 221.77932764 -259.97849739 211.51078737 -254.875 201.75 C-253.22706905 198.59666186 -251.78669823 195.49341898 -250.58984375 192.1484375 C-249.0034459 187.82412521 -246.94495889 183.88317864 -244.6875 179.875 C-244.26017578 179.11219727 -243.83285156 178.34939453 -243.39257812 177.56347656 C-232.73592057 158.80504611 -220.82270944 140.58725133 -207 124 C-206.58057129 123.4956543 -206.16114258 122.99130859 -205.72900391 122.47167969 C-190.08810985 103.73839578 -173.27102455 86.04448131 -154 71 C-153.06849121 70.26765137 -153.06849121 70.26765137 -152.11816406 69.52050781 C-132.15918471 53.86360698 -110.9379272 39.84847785 -87.98730469 28.94433594 C-85.90562008 27.95515215 -83.83173773 26.95065177 -81.7578125 25.9453125 C-61.62643663 16.25124566 -40.24776357 7.4026408 -18.140625 3.5859375 C-14.35720313 2.88007521 -10.78569507 1.79510621 -7.1484375 0.55078125 C-4.69955556 -0.07702303 -2.51897201 -0.03665377 0 0 Z " fill="#FDFDFD" transform="translate(393,108)"/>
<path d="M0 0 C0.268125 0.6084375 0.53625 1.216875 0.8125 1.84375 C12.49329064 27.97183433 26.87651738 52.65182085 45.24609375 74.6953125 C47 77 47 77 47 79 C45.0280811 80.46353356 43.0432056 81.82980075 41 83.1875 C25.49606587 93.90028782 11.96080534 108.11819212 0.0078125 122.62890625 C-2.83203079 125.95706519 -5.90541935 128.46632229 -9.5 130.9375 C-10.09949463 131.35789551 -10.69898926 131.77829102 -11.31665039 132.21142578 C-17.64012108 136.57090668 -24.27392399 140.30186937 -31 144 C-32.26185246 144.74196014 -33.52357157 145.48414713 -34.78515625 146.2265625 C-38 148 -38 148 -40 148 C-40.95745279 146.8880216 -41.86483238 145.7328376 -42.75 144.5625 C-46.60647947 139.94292991 -51.13241997 137.11998713 -56.28808594 134.14672852 C-60.83950428 131.44146533 -60.83950428 131.44146533 -61.67163086 129.15258789 C-62.27820151 125.17628053 -62.18458885 121.20197051 -62.1875 117.1875 C-62.19974609 116.31029297 -62.21199219 115.43308594 -62.22460938 114.52929688 C-62.23634637 109.29851103 -61.62072985 105.02120455 -60 100 C-59.72251062 98.17062558 -59.47170328 96.33697 -59.25 94.5 C-58.04180031 86.84806864 -55.01296776 80.06948946 -52 73 C-51.37081479 71.35576208 -50.74527975 69.7101181 -50.125 68.0625 C-41.59601461 46.91481081 -29.11038846 27.78653961 -13.75 11 C-13.2667627 10.47188721 -12.78352539 9.94377441 -12.28564453 9.3996582 C-3.49256155 0 -3.49256155 0 0 0 Z " fill="#101010" transform="translate(634,394)"/>
<path d="M0 0 C1.24962719 3.74888156 0.53981823 5.44497434 -0.4375 9.25 C-2.06106456 16.36699535 -4.376796 27.24640801 -1 34 C0.76837497 57.54848694 -3.21068074 79.25031519 -9 102 C-9.99 102 -10.98 102 -12 102 C-22.21946247 91.38676008 -28.92567085 77.45524652 -35.25 64.3125 C-39.09124373 56.53317447 -43.23615831 51.88192085 -51 48 C-48.60454985 45.18794983 -46.16161791 43.45450678 -42.9375 41.75 C-34.70007341 37.33322193 -27.38419397 31.6073158 -20.55859375 25.25 C-19 24 -19 24 -17 24 C-16.61908203 23.13568359 -16.61908203 23.13568359 -16.23046875 22.25390625 C-14.86303842 19.74912118 -13.2779126 18.00330695 -11.3125 15.9375 C-6.84078787 11.03251411 -3.39916953 5.68298656 0 0 Z " fill="#121212" transform="translate(406,406)"/>
<path d="M0 0 C0 3 0 3 -2.47851562 5.8190918 C-3.61342476 6.9535252 -4.75660841 8.07971791 -5.90625 9.19921875 C-6.50554321 9.79426712 -7.10483643 10.38931549 -7.72229004 11.00239563 C-9.64128092 12.90457052 -11.57043112 14.79606205 -13.5 16.6875 C-14.80146301 17.97392 -16.10225318 19.2610211 -17.40234375 20.54882812 C-20.59380369 23.70718002 -23.79441498 26.85598797 -27 30 C-27.66 29.67 -28.32 29.34 -29 29 C-28.43152344 28.443125 -27.86304688 27.88625 -27.27734375 27.3125 C-23.62980447 23.70758639 -20.04023438 20.12417841 -16.75 16.1875 C-11.70091075 10.27490856 -5.76266802 5.19939972 0 0 Z " fill="#DADADA" transform="translate(352,382)"/>
<path d="M0 0 C0.66 0.33 1.32 0.66 2 1 C-6.58 9.58 -15.16 18.16 -24 27 C-24.66 26.67 -25.32 26.34 -26 26 C-23.50649333 23.30641391 -21.00401126 20.62132058 -18.5 17.9375 C-17.80390625 17.18533203 -17.1078125 16.43316406 -16.390625 15.65820312 C-12.33397407 11.31984033 -8.17429853 7.25838422 -3.64648438 3.41235352 C-1.8978479 1.94872735 -1.8978479 1.94872735 0 0 Z " fill="#303030" transform="translate(275,241)"/>
<path d="M0 0 C1.30211046 3.90633137 0.47812346 6.19538173 -0.4375 10.1875 C-0.72496094 11.45980469 -1.01242187 12.73210937 -1.30859375 14.04296875 C-1.53675781 15.01878906 -1.76492188 15.99460937 -2 17 C-2.33 17 -2.66 17 -3 17 C-3.33 15.02 -3.66 13.04 -4 11 C-5.98 11.99 -5.98 11.99 -8 13 C-6.85605098 11.01974361 -5.70978896 9.04082322 -4.5625 7.0625 C-3.92441406 5.96035156 -3.28632813 4.85820312 -2.62890625 3.72265625 C-1 1 -1 1 0 0 Z " fill="#585858" transform="translate(406,406)"/>
<path d="M0 0 C0.66 0.33 1.32 0.66 2 1 C-1.96 4.96 -5.92 8.92 -10 13 C-10 8.41771462 -7.08388033 6.1816619 -4 3 C-1.625 1.0625 -1.625 1.0625 0 0 Z " fill="#303030" transform="translate(588,163)"/>
<path d="M0 0 C1.9955516 3.99110319 2.19546065 5.69986566 2 10 C1.01 10 0.02 10 -1 10 C-0.67 6.7 -0.34 3.4 0 0 Z " fill="#9E9E9E" transform="translate(212,698)"/>
</svg>
